<svg width="40" height="52" viewBox="0 0 40 52" fill="none" xmlns="http://www.w3.org/2000/svg">
<path d="M28.534 34.0016L27.468 37.0357C32.65 38.1624 36 40.3294 36 42.5578C36 45.5352 29.43 48.8526 20 48.8526C10.57 48.8526 4 45.5352 4 42.5578C4 40.3294 7.35 38.1624 12.534 37.0341L11.468 34C4.394 35.5391 0 38.8171 0 42.5578C0 47.8517 8.786 52 20 52C31.214 52 40 47.8517 40 42.5578C40 38.8171 35.606 35.5391 28.534 34.0016V34.0016Z" fill="black"/>
<path d="M19.7067 1.31989e-09C15.5536 0.00346877 11.5706 1.65025 8.62774 4.58066C5.68484 7.51107 4.02113 11.487 4 15.64C4 21.8667 7.49333 27.08 10.0533 30.88L10.52 31.5733C13.067 35.2648 15.7994 38.825 18.7067 42.24L19.72 43.4267L20.7333 42.24C23.6402 38.8247 26.3726 35.2646 28.92 31.5733L29.3867 30.8667C31.9333 27.0667 35.4267 21.8667 35.4267 15.64C35.4055 11.4847 33.74 7.50675 30.7942 4.57596C27.8484 1.64517 23.862 -5.38081e-05 19.7067 1.31989e-09V1.31989e-09ZM19.7067 22.6667C17.9767 22.6667 16.2857 22.1537 14.8473 21.1926C13.4089 20.2315 12.2878 18.8654 11.6258 17.2672C10.9638 15.669 10.7906 13.9103 11.1281 12.2136C11.4656 10.5169 12.2986 8.95842 13.5218 7.73517C14.7451 6.51193 16.3036 5.67889 18.0003 5.3414C19.697 5.00391 21.4556 5.17712 23.0539 5.83913C24.6521 6.50115 26.0182 7.62223 26.9793 9.06061C27.9404 10.499 28.4533 12.1901 28.4533 13.92C28.4533 16.2398 27.5318 18.4645 25.8915 20.1048C24.2512 21.7451 22.0264 22.6667 19.7067 22.6667V22.6667Z" fill="#E24136"/>
</svg>
