<svg width="22" height="18" viewBox="0 0 22 18" fill="none" xmlns="http://www.w3.org/2000/svg">
<path d="M21.2697 0H0.730285C0.536622 0.000226979 0.350959 0.0772798 0.214045 0.214248C0.0771312 0.351215 0.000151226 0.536908 0 0.730572V2.20029C0 2.268 0.0734286 2.34571 0.133429 2.37714L10.9294 8.54371C10.9571 8.55952 10.9884 8.5677 11.0203 8.56743C11.0528 8.56752 11.0848 8.55883 11.1129 8.54228L21.5826 2.38314C21.6414 2.35029 21.7974 2.26343 21.856 2.22343C21.9269 2.17514 22 2.13143 22 2.04486V0.730286C21.9998 0.536672 21.9228 0.351053 21.7858 0.214147C21.6489 0.0772407 21.4633 0.000226847 21.2697 0V0Z" fill="white"/>
<path d="M21.909 4.41626C21.8809 4.40023 21.849 4.39189 21.8167 4.39209C21.7843 4.39229 21.7526 4.40102 21.7247 4.4174L15.7998 7.9034C15.7762 7.91716 15.756 7.93605 15.7407 7.95869C15.7254 7.98132 15.7154 8.00711 15.7114 8.03414C15.7074 8.06118 15.7096 8.08876 15.7177 8.11485C15.7259 8.14093 15.7398 8.16485 15.7584 8.18483L21.6841 14.5725C21.7011 14.591 21.7217 14.6057 21.7447 14.6157C21.7677 14.6258 21.7925 14.6309 21.8176 14.6308C21.866 14.6308 21.9123 14.6115 21.9466 14.5773C21.9808 14.543 22.0001 14.4967 22.0001 14.4483V4.57483C22.0003 4.54271 21.9919 4.51113 21.9759 4.48328C21.9599 4.45544 21.9368 4.43232 21.909 4.41626Z" fill="white"/>
<path d="M14.0924 9.07444C14.0643 9.04381 14.0265 9.02375 13.9854 9.01761C13.9443 9.01148 13.9023 9.01964 13.8664 9.04072L11.4916 10.4382C11.3524 10.5185 11.1948 10.5614 11.0341 10.5624C10.8734 10.5635 10.7152 10.5227 10.575 10.4442L8.485 9.25015C8.45126 9.23094 8.41228 9.22296 8.3737 9.22738C8.33512 9.23179 8.29895 9.24838 8.27043 9.27472L0.333861 16.6364C0.313055 16.6559 0.29708 16.6799 0.28721 16.7066C0.277339 16.7334 0.273847 16.762 0.27701 16.7903C0.280174 16.8186 0.289906 16.8458 0.305432 16.8697C0.320957 16.8936 0.341845 16.9135 0.366433 16.9279C0.489861 17.0004 0.609004 17.035 0.730147 17.035H21.0596C21.0951 17.0351 21.13 17.0247 21.1597 17.0051C21.1894 16.9856 21.2127 16.9577 21.2267 16.925C21.241 16.8925 21.2454 16.8565 21.2394 16.8215C21.2334 16.7865 21.2173 16.7541 21.193 16.7281L14.0924 9.07444Z" fill="white"/>
<path d="M6.524 8.40321C6.54502 8.38377 6.56118 8.35967 6.57116 8.33284C6.58115 8.30601 6.58469 8.27721 6.58149 8.24876C6.57829 8.22031 6.56845 8.19301 6.55275 8.16906C6.53706 8.14512 6.51596 8.1252 6.49114 8.11092L0.272289 4.55892C0.244535 4.54317 0.213131 4.53497 0.181216 4.53516C0.149302 4.53535 0.117996 4.54391 0.0904295 4.55999C0.0628631 4.57608 0.0400023 4.59911 0.0241333 4.6268C0.00826438 4.65449 -5.64266e-05 4.68587 2.91335e-06 4.71778V14.0378C-0.00019845 14.0734 0.0100425 14.1082 0.0294581 14.1381C0.0488737 14.1679 0.0766116 14.1914 0.109239 14.2056C0.141866 14.2199 0.177949 14.2242 0.213024 14.2181C0.248098 14.2121 0.280624 14.1959 0.306574 14.1715L6.524 8.40321V8.40321Z" fill="white"/>
</svg>
