<?xml version="1.0" encoding="UTF-8"?><svg id="Layer_2" xmlns="http://www.w3.org/2000/svg" xmlns:xlink="http://www.w3.org/1999/xlink" viewBox="0 0 175.92 175.91"><defs><style>.cls-1{fill:#fff;}.cls-2{fill:url(#radial-gradient);}</style><radialGradient id="radial-gradient" cx="89.3" cy="215.47" fx="89.3" fy="215.47" r="236.94" gradientTransform="matrix(1, 0, 0, 1, 0, 0)" gradientUnits="userSpaceOnUse"><stop offset="0" stop-color="#3b5998"/><stop offset=".3" stop-color="#3b5998"/><stop offset="1" stop-color="#5f83cf"/></radialGradient></defs><g id="Layer_1-2"><g><path class="cls-2" d="M175.92,139.78c0,19.96-16.18,36.13-36.13,36.13H36.14c-19.96,0-36.14-16.17-36.14-36.13V36.13C0,16.17,16.18,0,36.14,0h103.65c19.96,0,36.13,16.17,36.13,36.13v103.65Z"/><path class="cls-1" d="M135.26,48.36h16.23V22.85h-24.32s-15.29-.38-25.04,12.29c0,0-6.64,6.26-6.74,24.59h0v19.13h-24.04v27.08h24.04v69.97h27.72V105.94h23.85l3.32-27.08h-27.17v-19.13h0c.07-2.14,1.02-11.56,12.16-11.37Z"/></g></g></svg>