<?xml version="1.0" encoding="UTF-8"?><svg id="Layer_2" xmlns="http://www.w3.org/2000/svg" xmlns:xlink="http://www.w3.org/1999/xlink" viewBox="0 0 175.92 175.93"><defs><style>.cls-1{fill:#fff;}.cls-2{fill:url(#radial-gradient);}</style><radialGradient id="radial-gradient" cx="51.53" cy="189.55" fx="51.53" fy="189.55" r="233.12" gradientTransform="matrix(1, 0, 0, 1, 0, 0)" gradientUnits="userSpaceOnUse"><stop offset=".1" stop-color="#ffd879"/><stop offset=".15" stop-color="#fccb75"/><stop offset=".26" stop-color="#f4aa6c"/><stop offset=".4" stop-color="#e8745d"/><stop offset=".45" stop-color="#e45f58"/><stop offset=".68" stop-color="#d22a9c"/><stop offset="1" stop-color="#6968df"/></radialGradient></defs><g id="Layer_1-2"><g><path class="cls-2" d="M175.92,139.79c0,19.95-16.18,36.13-36.13,36.13H36.13c-19.96,0-36.13-16.18-36.13-36.13V36.14C0,16.19,16.18,0,36.13,0h103.65c19.95,0,36.13,16.19,36.13,36.14v103.65Z"/><g><path class="cls-1" d="M113.42,21.63H62.5c-22.58,0-40.88,18.3-40.88,40.88v50.92c0,22.57,18.3,40.87,40.88,40.87h50.92c22.58,0,40.88-18.3,40.88-40.87V62.51c0-22.58-18.3-40.88-40.88-40.88Zm28.14,86.91c0,18.25-14.79,33.03-33.03,33.03h-41.15c-18.25,0-33.03-14.78-33.03-33.03v-41.15c0-18.24,14.79-33.03,33.03-33.03h41.15c18.24,0,33.03,14.8,33.03,33.03v41.15Z"/><path class="cls-1" d="M89.74,53.25c-19.31,0-34.95,15.64-34.95,34.94s15.65,34.95,34.95,34.95,34.95-15.65,34.95-34.95-15.65-34.94-34.95-34.94Zm0,55.97c-11.62,0-21.03-9.42-21.03-21.02s9.41-21.03,21.03-21.03,21.02,9.41,21.02,21.03-9.41,21.02-21.02,21.02Z"/><path class="cls-1" d="M131.15,52.7c0,4.91-3.99,8.89-8.89,8.89s-8.88-3.98-8.88-8.89,3.98-8.89,8.88-8.89,8.89,3.99,8.89,8.89Z"/></g></g></g></svg>