<?xml version="1.0" encoding="UTF-8"?><svg id="Layer_2" xmlns="http://www.w3.org/2000/svg" viewBox="0 0 175.92 175.92"><defs><style>.cls-1{fill:#fff;}.cls-2{fill:#007bb5;}</style></defs><g id="Layer_1-2"><g><path class="cls-2" d="M175.92,139.79c0,19.96-16.17,36.13-36.13,36.13H36.14c-19.96,0-36.14-16.17-36.14-36.13V36.14C0,16.18,16.18,0,36.14,0h103.65c19.96,0,36.13,16.18,36.13,36.14v103.65Z"/><g><path class="cls-1" d="M26.36,66.6h26.4v84.94H26.36V66.6Zm13.21-42.22c8.44,0,15.3,6.86,15.3,15.32s-6.86,15.29-15.3,15.29-15.3-6.85-15.3-15.29,6.84-15.32,15.3-15.32"/><path class="cls-1" d="M69.32,66.6h25.33v11.62h.36c3.52-6.68,12.13-13.72,24.98-13.72,26.74,0,31.67,17.59,31.67,40.45v46.59h-26.39v-41.31c0-9.85-.17-22.53-13.72-22.53s-15.83,10.74-15.83,21.82v42.01h-26.39V66.6Z"/></g></g></g></svg>